<svg width="504" height="656" viewBox="0 0 504 656" fill="none" xmlns="http://www.w3.org/2000/svg">
<rect width="408" height="656" fill="#F7F8FC"/>
<mask id="mask0_87_6656" style="mask-type:alpha" maskUnits="userSpaceOnUse" x="88" y="136" width="320" height="353">
<rect x="88" y="136" width="320" height="353" fill="#C4C4C4"/>
</mask>
<g mask="url(#mask0_87_6656)">
<path d="M120 459.511H1110.06V463.368H120V459.511Z" fill="#E1E4F4"/>
<path d="M155.172 405.442C155.172 405.442 174.147 414.004 193.121 413.078C212.095 412.152 215.566 405.442 215.566 405.442C215.566 405.442 188.185 396.803 155.172 405.442Z" fill="#D0D5F4"/>
<path d="M215.489 405.442C215.489 405.442 212.018 412.153 193.043 413.078C174.069 414.004 155.094 405.442 155.094 405.442C135.503 445.782 139.205 470.696 163.579 481.803H206.927C232.612 470.618 238.165 446.862 215.489 405.442Z" fill="#E1E4F4"/>
<path d="M215.489 412.23C207.93 424.802 180.317 421.717 158.412 415.778C158.412 415.778 209.473 436.912 215.489 412.23Z" fill="#D0D5F4"/>
<path d="M228.292 387.085C228.292 402.665 208.701 415.315 184.481 415.315C160.262 415.315 140.67 402.665 140.67 387.085V381.994C140.67 366.413 160.262 353.764 184.481 353.764C208.701 353.764 228.292 366.413 228.292 381.994V387.085Z" fill="#D0D5F4"/>
<path d="M239.709 388.936C246.573 386.39 235.235 383.845 232.767 384.539C229.296 385.465 217.263 392.021 224.514 396.34C220.117 398.423 214.641 399.426 211.324 403.282C205.925 409.916 213.87 411.535 218.575 406.599C220.117 414.081 244.645 406.368 230.299 402.511C233.153 401.817 239.4 404.439 241.637 402.357C247.345 397.035 232.381 395.184 230.299 395.106C233.538 392.638 235.544 390.401 239.709 388.936C236.238 390.17 243.103 387.625 239.709 388.936Z" fill="#D0D5F4"/>
<path d="M211.555 409.607C214.409 408.913 220.657 411.613 222.893 409.453C228.601 404.131 213.638 402.28 211.555 402.202C214.795 399.657 216.8 397.42 220.965 395.955C224.359 394.644 217.494 397.189 220.965 395.955C227.83 393.409 216.491 390.864 214.023 391.558C210.552 392.484 198.52 399.04 205.77 403.359C201.374 405.442 195.897 406.445 192.581 410.301C187.181 416.935 195.126 418.554 199.831 413.618C201.374 421.1 225.901 413.387 211.555 409.607Z" fill="#E1E4F4"/>
<path d="M229.991 371.735C234.85 367.416 224.669 368.959 222.817 370.347C220.272 372.198 212.482 381.608 219.809 382.765C216.878 385.928 212.636 388.473 211.17 392.792C208.857 400.043 215.953 398.809 218.267 393.178C221.969 398.886 239.709 384.539 226.674 386.005C228.834 384.462 234.85 384.694 236.007 382.225C238.938 375.978 225.98 379.294 224.283 379.911C226.134 376.749 227.06 374.281 229.991 371.735C227.522 373.895 232.382 369.576 229.991 371.735Z" fill="#E1E4F4"/>
<path d="M225.594 368.342C229.99 362.48 217.649 363.482 215.489 363.791C217.803 362.094 221.351 355.692 217.572 353.069C214.487 350.91 211.17 358.546 209.165 360.088C206.696 355.152 202.917 349.676 197.595 347.593C192.504 345.665 184.714 350.216 190.344 356C195.204 361.014 201.837 361.631 206.388 368.342C209.627 373.124 211.787 365.565 213.638 364.793C209.01 370.578 222.277 372.815 225.594 368.342C224.282 370.116 226.365 367.339 225.594 368.342Z" fill="#D0D5F4"/>
<path d="M146.765 397.42C139.9 394.875 151.238 392.33 153.706 393.024C157.177 393.949 169.21 400.506 161.96 404.825C166.356 406.907 171.832 407.91 175.149 411.767C180.548 418.4 172.604 420.02 167.899 415.083C166.356 422.565 141.828 414.852 156.175 410.995C153.321 410.301 147.073 412.924 144.836 410.841C139.129 405.519 154.092 403.668 156.175 403.591C152.935 401.123 150.93 398.886 146.765 397.42C150.236 398.654 143.371 396.186 146.765 397.42Z" fill="#E1E4F4"/>
<path d="M137.739 373.278C132.88 368.959 143.061 370.501 144.912 371.89C147.458 373.741 155.248 383.151 147.921 384.308C150.852 387.47 155.094 390.016 156.559 394.335C158.873 401.585 151.777 400.351 149.463 394.721C145.761 400.428 128.021 386.082 141.056 387.547C138.896 386.005 132.88 386.236 131.723 383.768C128.792 377.52 141.75 380.837 143.447 381.454C141.596 378.292 140.67 375.823 137.739 373.278C140.207 375.438 135.271 371.118 137.739 373.278Z" fill="#D0D5F4"/>
<path d="M142.06 369.807C137.664 363.945 150.005 364.948 152.165 365.256C149.851 363.559 146.303 357.158 150.082 354.535C153.167 352.375 156.484 360.011 158.489 361.554C160.958 356.618 164.737 351.141 170.059 349.059C175.15 347.13 182.94 351.681 177.309 357.466C172.45 362.48 165.817 363.097 161.266 369.807C158.027 374.589 155.867 367.03 154.016 366.259C158.644 372.121 145.454 374.281 142.06 369.807C143.449 371.658 141.366 368.804 142.06 369.807Z" fill="#D0D5F4"/>
<path d="M161.727 375.746C157.562 369.73 154.631 381.84 154.245 383.999C153.32 381.3 148.383 375.9 144.681 378.677C141.673 380.914 147.843 386.467 148.769 388.859C143.292 389.707 136.968 391.558 133.265 395.955C129.794 400.197 131.723 409.067 138.973 405.519C145.298 402.434 147.843 396.34 155.711 394.104C161.264 392.484 154.708 388.164 154.554 386.082C158.719 392.252 164.967 380.374 161.727 375.746C163.038 377.674 161.033 374.821 161.727 375.746Z" fill="#F7F7FA"/>
<path d="M240.247 385.619C245.569 380.528 233.151 379.526 230.991 379.526C233.537 378.214 238.087 372.43 234.771 369.267C232.071 366.645 227.598 373.664 225.361 374.821C223.664 369.499 220.81 363.559 215.951 360.628C211.246 357.852 202.761 361.168 207.389 367.725C211.4 373.432 217.802 375.052 221.273 382.534C223.664 387.779 227.058 380.683 228.986 380.143C223.51 385.233 236.236 389.553 240.247 385.619C238.627 387.239 241.173 384.771 240.247 385.619Z" fill="#F7F7FA"/>
<path d="M171.137 387.933C178.002 385.388 166.663 382.842 164.195 383.537C160.724 384.462 148.692 391.018 155.942 395.338C151.546 397.42 146.069 398.423 142.753 402.28C137.353 408.913 145.298 410.533 150.003 405.596C151.546 413.078 176.073 405.365 161.727 401.508C164.581 400.814 170.828 403.437 173.065 401.354C178.773 396.032 163.809 394.181 161.727 394.104C164.966 391.635 167.049 389.399 171.137 387.933C167.666 389.167 174.531 386.699 171.137 387.933Z" fill="#E1E4F4"/>
<path d="M183.633 416.24C189.649 420.405 185.176 409.684 183.247 408.064C180.548 405.75 168.207 399.734 168.824 408.064C164.581 405.673 160.648 401.74 155.557 401.354C146.995 400.737 150.312 408.141 157.023 409.221C151.778 414.775 172.217 430.355 167.127 416.472C169.364 418.4 170.752 425.033 173.76 425.65C181.396 427.193 174.3 413.926 173.143 412.152C177.077 413.309 180.008 413.695 183.633 416.24C180.548 414.081 186.641 418.246 183.633 416.24Z" fill="#F7F7FA"/>
<path d="M184.405 398.577C182.168 394.258 171.832 400.274 173.375 404.516C175.534 410.995 186.41 402.434 184.405 398.577C185.022 399.734 183.633 397.112 184.405 398.577Z" fill="#E1E4F4"/>
<path d="M190.653 395.569C188.493 396.032 181.783 399.734 188.262 401.662C195.281 403.822 195.975 394.721 190.653 395.569C194.818 394.875 189.496 395.878 190.653 395.569Z" fill="#F7F7FA"/>
<path d="M216.029 385.696C217.109 387.624 222.508 393.024 222.585 386.313C222.662 378.909 213.638 380.837 216.029 385.696C214.178 381.917 216.569 386.699 216.029 385.696Z" fill="#F7F7FA"/>
<path d="M202.222 384.231C202.917 385.465 206.387 388.936 206.465 384.616C206.465 379.911 200.68 381.068 202.222 384.231C200.988 381.763 202.608 384.925 202.222 384.231Z" fill="#F7F7FA"/>
<path d="M260.302 446.245C260.302 446.245 245.955 481.185 258.219 474.629L276.268 447.402C276.268 447.479 265.778 441.385 260.302 446.245Z" fill="#D0D5F4"/>
<path d="M342.755 448.096C342.755 448.096 328.023 488.282 340.287 480.646L358.644 449.253C358.644 449.253 348.232 442.388 342.755 448.096Z" fill="#D0D5F4"/>
<path d="M502.805 407.293C502.805 407.293 507.202 380.22 490.31 372.969L474.112 367.185C474.112 367.185 447.579 351.912 441.177 340.266C439.326 336.872 438.632 333.015 436.086 329.621C430.224 321.754 421.663 320.443 412.33 319.749C386.491 317.82 360.343 316.663 334.427 316.278C309.899 315.969 285.216 317.126 260.766 320.134C245.262 322.062 231.918 327.462 232.613 328.542L335.584 449.099C347.77 448.636 357.489 450.333 369.676 449.87C393.047 448.944 418.886 447.402 442.257 446.553C457.76 446.09 474.421 446.862 489.77 444.702C498.332 443.545 501.803 435.292 501.34 427.116L502.805 407.293Z" fill="#E1E4F4"/>
<path d="M430.532 386.313C425.287 385.311 419.888 384.693 414.566 384.076C411.866 383.845 409.167 383.614 406.544 383.459L402.533 383.228L398.523 383.074C387.724 382.688 376.926 382.919 366.204 383.537C363.505 383.691 360.805 383.999 358.183 384.154L354.172 384.462L350.161 384.925L342.139 385.85C339.44 386.236 336.817 386.622 334.117 387.085L330.107 387.702C328.795 387.933 327.484 388.164 326.096 388.396L318.151 389.861L316.146 390.247L314.14 390.71L310.207 391.635C307.584 392.252 304.962 392.869 302.339 393.487C307.661 392.638 312.906 391.558 318.228 390.71L326.173 389.476C327.484 389.244 328.795 389.013 330.184 388.859L334.195 388.396L342.216 387.393L350.238 386.545L354.249 386.159L358.26 385.85C360.959 385.619 363.582 385.388 366.281 385.233L374.303 384.771C377.003 384.616 379.702 384.616 382.325 384.462C385.024 384.308 387.724 384.308 390.347 384.308L394.357 384.231H398.368H402.379L406.39 384.385C409.09 384.462 411.789 384.616 414.412 384.694C419.811 385.311 425.21 385.696 430.532 386.313Z" fill="#D0D5F4"/>
<path d="M241.867 420.174C251.663 453.958 276.731 449.638 276.731 449.638L354.557 449.87C344.53 448.327 342.987 422.565 342.987 422.565C343.45 382.919 282.747 369.653 282.747 369.653C262.23 320.134 232.688 328.619 232.688 328.619C232.688 328.619 220.039 344.816 241.867 420.174Z" fill="#D0D5F4"/>
<path d="M241.868 420.174C251.663 453.958 276.731 449.638 276.731 449.638L354.557 449.87C344.53 448.327 342.987 422.565 342.987 422.565C343.45 382.919 282.747 369.653 282.747 369.653C262.23 320.134 232.689 328.619 232.689 328.619C232.689 328.619 220.039 344.816 241.868 420.174Z" fill="#D0D5F4"/>
<path d="M181.783 243.234H255.984V152.758H181.783V243.234ZM251.433 238.606H186.488V157.386H251.433V238.606Z" fill="#E1E4F4"/>
<path d="M195.281 168.802H242.64V227.19H195.281V168.802Z" fill="#E1E4F4"/>
</g>
<mask id="mask1_87_6656" style="mask-type:alpha" maskUnits="userSpaceOnUse" x="280" y="96" width="224" height="448">
<path d="M280 108C280 101.373 285.373 96 292 96H492C498.627 96 504 101.373 504 108V532C504 538.627 498.627 544 492 544H292C285.373 544 280 538.627 280 532V108Z" fill="#494F66"/>
</mask>
<g mask="url(#mask1_87_6656)">
<path opacity="0.15" d="M474.851 521.7C470.647 520.14 456.996 519.863 456.996 519.863C453.47 517.406 453.185 516.9 448.886 517.096L386.062 516.964C378.231 517.324 361.073 524.088 358.372 531.414C355.627 538.86 366.793 544.349 374.75 543.983C374.75 543.983 435.868 541.444 456.152 539.435C475.732 537.496 484.812 525.395 474.851 521.7Z" fill="#001177"/>
<path d="M363.938 304.072L352.323 324.757C350.075 322.299 339.561 317.877 334.805 309.359C330.48 310.555 326.884 318.319 328.134 322.357C337.046 333.418 356.173 353.056 361.769 347.952C370.577 339.914 377.945 321.037 377.945 321.037L363.938 304.072Z" fill="#FAC2A8"/>
<path d="M333.197 314.34C333.197 314.34 339.581 313.748 338.63 302.037C338.428 299.579 337.223 295.352 337.079 293.987C336.936 292.621 337.131 287.783 338.226 286.294C339.327 284.805 340.037 283.726 339.151 282.633C338.265 281.541 333.685 280.832 331.633 285.273C329.581 289.714 330.649 293.447 330.649 293.447C330.649 293.447 327.001 288.908 325.138 288.908C324.33 288.908 315.933 288.381 314.167 290.482C313.496 291.275 311.777 308.78 312.024 309.632C312.272 310.49 320.35 324.152 328.285 322.787C331.913 322.162 333.197 314.762 333.197 314.34Z" fill="#FAC2A8"/>
<path d="M316.618 305.958C317.094 305.743 317.537 305.613 318.006 305.568L319.413 305.483C320.358 305.438 321.302 305.392 322.286 305.457C322.534 305.477 322.781 305.503 323.055 305.574C323.341 305.639 323.654 305.834 323.83 305.997C324.24 306.342 324.553 306.712 324.859 307.089C325.465 307.863 325.986 308.598 326.475 309.502C326.696 309.97 326.866 310.451 326.931 310.991C327.003 311.524 326.924 312.116 326.651 312.617C326.384 313.124 325.96 313.501 325.517 313.774C325.068 314.054 324.592 314.236 324.11 314.359C323.628 314.489 323.146 314.574 322.657 314.619C322.416 314.645 322.169 314.658 321.921 314.665C321.661 314.665 321.459 314.678 321.12 314.619C320.534 314.437 320.156 314.158 319.758 313.859C319.563 313.709 319.381 313.553 319.198 313.39C319.009 313.215 318.866 313.091 318.651 312.844L319.192 312.448C319.758 312.981 320.612 313.664 321.289 313.872C321.42 313.891 321.687 313.891 321.895 313.878C322.117 313.865 322.345 313.846 322.566 313.82C323.009 313.761 323.452 313.67 323.876 313.546C324.709 313.293 325.524 312.877 325.863 312.213C326.221 311.563 326.038 310.685 325.661 309.925C325.491 309.573 325.192 309.157 324.951 308.787C324.69 308.409 324.429 308.026 324.156 307.668C323.882 307.311 323.589 306.959 323.276 306.693C323.107 306.55 323.009 306.485 322.84 306.433C322.657 306.381 322.442 306.355 322.221 306.329C321.328 306.251 320.39 306.277 319.459 306.303C318.521 306.277 317.563 306.537 316.618 305.958Z" fill="#DC918B"/>
<path d="M317.016 300.509C318.501 300.151 319.941 300.327 321.4 300.405C322.13 300.457 322.859 300.509 323.602 300.6C323.98 300.658 324.331 300.684 324.768 300.84C325.244 301.009 325.537 301.341 325.81 301.647C326.318 302.29 326.618 303.006 326.859 303.721C327.1 304.443 327.263 305.178 327.354 305.932C327.452 306.68 327.452 307.447 327.341 308.214C327.217 309.014 326.95 309.69 326.599 310.386L325.96 310.074C326.097 309.762 326.208 309.43 326.305 309.099C326.416 308.761 326.475 308.435 326.52 308.104C326.592 307.428 326.546 306.732 326.462 306.042C326.266 304.677 325.849 303.259 325.081 302.219C324.885 301.985 324.664 301.751 324.442 301.679C324.195 301.575 323.817 301.523 323.478 301.465C322.774 301.361 322.058 301.289 321.335 301.224C319.895 301.081 318.436 301.088 317.016 300.509Z" fill="#DC918B"/>
<path d="M326.742 305.607C327.4 305.145 327.921 304.514 328.207 303.786C328.507 303.058 328.546 302.238 328.475 301.432C328.273 299.813 327.621 298.161 326.611 296.893C326.097 296.263 325.484 295.736 324.748 295.541C323.973 295.326 323.1 295.268 322.247 295.229C321.387 295.183 320.514 295.203 319.634 295.164C319.198 295.144 318.755 295.105 318.312 295.04C317.875 294.956 317.406 294.89 317.022 294.63C317.465 294.656 317.888 294.578 318.325 294.539C318.755 294.5 319.191 294.461 319.628 294.435C320.501 294.39 321.38 294.396 322.266 294.409C323.152 294.435 324.045 294.468 324.97 294.695C325.953 294.936 326.742 295.599 327.335 296.302C327.947 297.017 328.377 297.836 328.722 298.681C329.061 299.533 329.302 300.411 329.406 301.341C329.504 302.264 329.413 303.246 329.022 304.131C328.644 305.021 327.966 305.769 327.159 306.263L326.742 305.607Z" fill="#DC918B"/>
<path d="M329.139 291.672C329.777 292.088 330.337 292.576 330.728 293.304C331.106 294.039 331.132 294.917 330.963 295.671C330.8 296.419 330.559 297.179 330.005 297.83C329.725 298.148 329.347 298.402 328.924 298.519C328.52 298.649 328.057 298.629 327.731 298.61V297.895C328.135 297.908 328.415 297.914 328.709 297.823C328.995 297.739 329.243 297.576 329.445 297.342C329.849 296.874 330.083 296.204 330.2 295.534C330.324 294.865 330.298 294.221 330.051 293.623C329.836 293.005 329.354 292.433 329.139 291.672Z" fill="#DC918B"/>
<path d="M322.299 312.304C321.751 312.493 321.204 312.675 320.644 312.779C320.084 312.896 319.51 312.961 318.937 312.994C318.357 313.007 317.771 312.987 317.198 312.864C316.631 312.747 316.012 312.538 315.615 312.09C316.175 312.252 316.709 312.259 317.263 312.259C317.81 312.252 318.357 312.239 318.911 312.213C319.465 312.2 320.025 312.174 320.585 312.174C321.139 312.187 321.712 312.168 322.299 312.304Z" fill="#DC918B"/>
<path d="M450.588 304.248L461.338 325.29C463.585 322.832 476.438 317.877 481.194 309.359C485.52 310.555 489.116 318.319 487.865 322.357C478.953 333.418 464.823 352.237 456.478 347.269C446.23 341.163 438.054 321.037 438.054 321.037L450.588 304.248Z" fill="#FAC2A8"/>
<path d="M482.804 314.34C482.804 314.34 476.419 313.748 477.37 302.037C477.572 299.579 478.778 295.352 478.921 293.987C479.064 292.621 478.869 287.783 477.774 286.294C476.673 284.805 475.963 283.726 476.849 282.633C477.735 281.541 482.315 280.832 484.367 285.273C486.419 289.714 485.351 293.447 485.351 293.447C485.351 293.447 488.999 288.908 490.862 288.908C491.67 288.908 500.067 288.381 501.833 290.482C502.504 291.275 504.223 308.78 503.976 309.632C503.728 310.49 495.65 324.152 487.716 322.787C484.08 322.162 482.797 314.762 482.804 314.34Z" fill="#FAC2A8"/>
<path d="M499.377 305.958C498.432 306.537 497.475 306.277 496.543 306.29C495.611 306.264 494.673 306.238 493.781 306.316C493.559 306.335 493.344 306.368 493.162 306.42C492.986 306.465 492.895 306.537 492.725 306.68C492.419 306.946 492.126 307.298 491.846 307.655C491.566 308.013 491.312 308.396 491.051 308.774C490.804 309.144 490.504 309.56 490.341 309.912C489.963 310.666 489.781 311.55 490.139 312.2C490.478 312.87 491.299 313.286 492.126 313.534C492.55 313.664 492.986 313.755 493.436 313.807C493.657 313.839 493.885 313.859 494.107 313.865C494.315 313.878 494.582 313.878 494.712 313.859C495.39 313.651 496.243 312.968 496.81 312.435L497.351 312.831C497.136 313.085 496.992 313.202 496.804 313.377C496.621 313.54 496.439 313.696 496.243 313.846C495.846 314.145 495.468 314.424 494.882 314.606C494.55 314.665 494.341 314.652 494.08 314.652C493.833 314.645 493.592 314.632 493.344 314.606C492.856 314.561 492.374 314.476 491.892 314.346C491.41 314.216 490.934 314.034 490.484 313.761C490.041 313.488 489.611 313.111 489.351 312.604C489.077 312.103 488.999 311.511 489.071 310.978C489.136 310.438 489.299 309.957 489.527 309.489C490.015 308.585 490.537 307.85 491.142 307.076C491.449 306.699 491.761 306.329 492.172 305.984C492.354 305.821 492.667 305.626 492.947 305.561C493.221 305.496 493.468 305.464 493.716 305.444C494.699 305.379 495.644 305.425 496.589 305.47L497.996 305.555C498.458 305.613 498.901 305.737 499.377 305.958Z" fill="#DC918B"/>
<path d="M498.979 300.509C497.559 301.088 496.1 301.075 494.66 301.224C493.937 301.289 493.22 301.361 492.517 301.465C492.178 301.523 491.8 301.575 491.553 301.679C491.331 301.751 491.11 301.985 490.914 302.219C490.139 303.259 489.722 304.677 489.533 306.042C489.448 306.732 489.403 307.428 489.474 308.104C489.52 308.435 489.579 308.754 489.689 309.099C489.787 309.43 489.898 309.768 490.035 310.074L489.396 310.386C489.051 309.69 488.784 309.014 488.654 308.214C488.543 307.447 488.543 306.68 488.641 305.932C488.738 305.184 488.901 304.443 489.136 303.721C489.383 303.006 489.683 302.29 490.185 301.647C490.458 301.341 490.751 301.009 491.227 300.84C491.657 300.684 492.015 300.658 492.393 300.6C493.136 300.509 493.865 300.457 494.595 300.405C496.054 300.327 497.494 300.151 498.979 300.509Z" fill="#DC918B"/>
<path d="M488.829 306.257C488.022 305.763 487.344 305.015 486.966 304.124C486.575 303.24 486.484 302.251 486.582 301.335C486.686 300.405 486.927 299.527 487.266 298.675C487.611 297.83 488.048 297.004 488.653 296.295C489.246 295.593 490.035 294.93 491.018 294.689C491.943 294.461 492.836 294.435 493.722 294.403C494.608 294.39 495.487 294.383 496.36 294.429C496.797 294.455 497.233 294.494 497.663 294.533C498.1 294.572 498.523 294.65 498.966 294.624C498.582 294.884 498.106 294.949 497.676 295.034C497.233 295.099 496.79 295.138 496.354 295.157C495.474 295.196 494.608 295.177 493.741 295.222C492.888 295.268 492.015 295.326 491.24 295.534C490.504 295.729 489.891 296.256 489.377 296.887C488.367 298.155 487.715 299.8 487.513 301.426C487.435 302.232 487.481 303.051 487.781 303.78C488.067 304.508 488.595 305.139 489.246 305.6L488.829 306.257Z" fill="#DC918B"/>
<path d="M486.856 291.672C486.648 292.433 486.159 293.005 485.937 293.61C485.69 294.201 485.657 294.852 485.788 295.521C485.905 296.191 486.139 296.861 486.543 297.329C486.745 297.563 486.993 297.726 487.279 297.81C487.573 297.901 487.853 297.901 488.257 297.882V298.597C487.937 298.617 487.475 298.636 487.064 298.506C486.648 298.389 486.263 298.135 485.983 297.817C485.429 297.173 485.188 296.406 485.025 295.658C484.856 294.91 484.882 294.026 485.26 293.291C485.657 292.569 486.218 292.088 486.856 291.672Z" fill="#DC918B"/>
<path d="M493.696 312.304C494.275 312.168 494.849 312.187 495.415 312.181C495.982 312.174 496.536 312.2 497.09 312.22C497.643 312.246 498.191 312.259 498.738 312.265C499.285 312.259 499.819 312.259 500.386 312.096C499.989 312.545 499.37 312.76 498.803 312.87C498.223 312.987 497.637 313.013 497.064 313C496.484 312.968 495.917 312.909 495.357 312.786C494.79 312.675 494.243 312.493 493.696 312.304Z" fill="#DC918B"/>
<path d="M393.964 500.443V515.666L380.752 514.398L381.892 499.67L393.964 500.443Z" fill="#FAC2A8"/>
<path d="M437.43 501.328V516.557L423.052 515.744V499.67L437.43 501.328Z" fill="#FAC2A8"/>
<path d="M438.818 509.664C440.199 509.391 445.984 514.053 454.465 516.55C454.465 516.55 464.53 517.409 469.964 522.058C472.035 523.827 470.895 527.208 468.179 527.344C459.768 527.767 442.179 528.209 422.362 526.083C422.362 526.083 418.186 519.639 422.759 511.043C427.007 514.151 431.88 514.157 436.961 513.201C436.961 513.201 437.436 509.944 438.818 509.664Z" fill="#2B2E3A"/>
<path d="M394.212 511.517C393.436 512.551 392.511 513.039 391.417 512.883C390.681 512.792 395.052 508.279 386.29 507.668C379.971 507.226 380.981 511.693 380.753 511.296C380.551 510.938 380.029 510.204 380.029 510.204C372.486 522.422 365.873 524.223 366.492 529.88C367.111 535.538 369.912 541.195 380.277 539.413C390.635 537.625 394.511 532.559 394.98 528.983C395.449 525.413 394.212 511.517 394.212 511.517Z" fill="#2B2E3A"/>
<path d="M444.237 375.399L443.944 390.147C443.944 390.147 425.202 398.698 411.619 400.284C401.332 451.03 403.782 454.457 402.857 459.354C402.394 461.799 399.665 492.536 399.958 493.999C400.251 495.469 400.544 497.972 400.082 499.67C399.736 500.938 400.609 507.642 400.609 507.642C400.609 507.642 396.492 508.825 391.202 509.41C385.912 509.996 379.118 508.11 377.059 508.11C377.059 508.11 377.6 504.527 377.033 502.303C376.557 500.417 378.212 498.102 377.626 496.048C377.04 493.993 376.18 474.166 376.232 462.605C376.238 461.434 376.649 444.313 378.114 440.152C377.528 402.898 377.691 396.454 377.593 394.581C377.202 387.006 377.202 377.46 377.202 375.113C377.202 372.765 383.267 370.854 383.267 370.854L444.237 375.399Z" fill="#474E64"/>
<path d="M443.944 390.147C443.944 390.147 441.977 435.522 441.977 437.57C441.977 439.625 440.491 496.178 441.078 497.647C441.664 499.117 442.576 506.335 442.576 506.335C442.576 506.335 436.524 508.734 432.504 509.04C428.83 509.319 427.071 509.508 417.085 507.16C417.925 501.165 417.834 494.493 417.834 492.439C417.834 490.384 416.752 477.171 416.752 473.939C416.752 470.714 414.049 451.596 416.107 443.533C416.733 441.088 414.987 399.764 414.987 399.764C414.987 399.764 426.895 396.818 443.944 390.147Z" fill="#343948"/>
<path d="M413.397 374.957C413.41 376.407 413.384 377.85 413.371 379.3C413.365 380.75 413.312 382.194 413.28 383.638C413.221 386.531 413.124 389.418 413.006 392.312L412.57 391.857L417.462 391.844L417.013 392.267L417.371 385.998C417.495 383.911 417.651 381.823 417.807 379.736L417.827 379.476L418.068 379.456C419.26 379.365 420.459 379.248 421.651 379.17L421.475 379.391C421.384 377.772 421.267 376.16 421.195 374.54C421.443 376.14 421.651 377.746 421.873 379.352L421.899 379.541L421.697 379.573C420.511 379.743 419.319 379.886 418.133 380.042L418.394 379.769C418.335 381.862 418.283 383.956 418.192 386.044L417.912 392.319L417.892 392.748H417.462L412.57 392.735H412.114L412.14 392.28C412.296 389.392 412.479 386.505 412.694 383.618C412.798 382.175 412.882 380.731 413.019 379.294C413.137 377.837 413.247 376.394 413.397 374.957Z" fill="#343948"/>
<path d="M447.338 200.116C447.338 200.116 450.061 184.678 460.595 189.945C471.129 195.219 462.484 221.502 447.416 219.422C447.416 219.422 444.413 214.174 447.338 200.116Z" fill="#F7AB8D"/>
<path d="M434.654 278.01C440.133 280.559 444.257 290.332 455.527 310.224C452.771 314.463 445.325 317.422 439.69 323.697L430.244 309.112L434.654 278.01Z" fill="#EF3F54"/>
<path d="M377.196 375.119L377.521 364.117L444.237 361.782V375.399C412.224 380.848 377.196 375.119 377.196 375.119Z" fill="#2B2E3A"/>
<path d="M422.368 367.427H415.052C413.489 367.427 412.218 368.695 412.218 370.255V374.872C412.218 376.433 413.489 377.701 415.052 377.701H422.368" stroke="#545B72" stroke-width="4.0989" stroke-miterlimit="10" stroke-linejoin="round"/>
<path d="M422.928 372.564H417.293" stroke="#545B72" stroke-width="4.0989" stroke-miterlimit="10" stroke-linejoin="round"/>
<path d="M374.98 286.983C376.283 279.063 383.189 273.302 391.228 273.348C395.579 273.367 401.013 270.122 406.407 270.851C414.087 271.969 429.149 275.61 434.647 278.016C443.774 298.077 440.243 340.526 445.878 369.137C432.914 370.451 397.69 373.429 376.772 369.007C383.039 321.083 370.095 316.707 374.98 286.983Z" fill="#EF3F54"/>
<path d="M392.701 270.343L393.887 253.885L418.694 258.665C418.694 258.665 416.903 267.612 416.85 274.017C416.85 274.017 416.909 275.565 416.772 277.646C415.137 278.354 413.385 278.816 411.6 278.764C407.489 278.641 398.564 273.796 392.701 270.343Z" fill="#DC918B"/>
<path d="M411.606 278.764C413.391 278.816 415.144 278.355 416.779 277.646C416.558 281.079 415.821 285.976 413.45 287.783C397.437 286.379 392.538 272.639 392.538 272.639L392.701 270.343C398.564 273.796 407.489 278.641 411.606 278.764Z" fill="#FAC2A8"/>
<path d="M448.198 132.307C459.195 132.502 460.289 145.539 461.481 151.184C465.064 168.188 458.217 197.384 458.113 205.109C458.113 205.116 430.244 131.988 448.198 132.307Z" fill="#2B2E3A"/>
<path d="M452.152 137.066C452.152 137.066 461.689 234.449 458.875 241.628C456.061 248.813 434.993 261.24 422.524 264.172C410.055 267.111 383.319 251.278 378.967 246.492C376.629 243.917 370.134 220.586 364.994 196.747C360.583 176.303 346.909 159.305 347.952 150.904C347.958 150.897 403.208 114.782 452.152 137.066Z" fill="#FAC2A8"/>
<path d="M447.202 188.047C446.257 186.733 445.319 185.446 444.283 184.275C443.755 183.703 443.228 183.137 442.641 182.676C442.068 182.207 441.443 181.811 440.804 181.635C439.534 181.219 438.277 182.006 437.313 183.183C436.335 184.347 435.586 185.764 434.785 187.169C435.085 185.576 435.573 184.002 436.492 182.578C436.941 181.863 437.56 181.206 438.361 180.725C439.169 180.25 440.244 180.127 441.156 180.387C442.967 180.985 444.127 182.324 445.071 183.651C446.016 185.016 446.733 186.493 447.202 188.047Z" fill="#2B2E3A"/>
<path d="M410.081 189.087C408.935 187.722 407.736 186.428 406.394 185.381C405.072 184.347 403.489 183.592 402.062 184.002C401.345 184.178 400.694 184.633 400.12 185.205C399.814 185.465 399.567 185.816 399.293 186.122C399.065 186.48 398.792 186.798 398.57 187.169C397.651 188.619 396.909 190.219 396.114 191.818C396.388 190.049 396.876 188.313 397.684 186.668C397.866 186.245 398.127 185.862 398.362 185.459C398.648 185.082 398.889 184.685 399.234 184.34C399.879 183.638 400.713 183.014 401.723 182.734C402.733 182.468 403.821 182.611 404.72 182.994C405.625 183.391 406.394 183.957 407.052 184.6C408.381 185.907 409.391 187.435 410.081 189.087Z" fill="#2B2E3A"/>
<path d="M374.023 202.697C374.023 202.697 375.502 207.749 377.984 212.704C384.075 224.845 403.853 209.993 431.873 213.927C439.234 214.961 441.879 216.983 449.664 217.887C460.12 219.096 457.266 198.555 457.305 194.751C459.143 218.186 463.866 235.45 459.599 244.84C456.465 251.739 435.456 265.434 417.723 265.765C402.981 266.045 380.629 256.148 376.356 251.447C374.284 249.164 369.685 230.352 364.949 209.525L360.812 196.181L374.023 202.697Z" fill="#2B2E3A"/>
<path d="M444.166 222.062C444.166 222.062 425.899 234.956 398.199 221.867C398.199 221.867 409.235 247.09 425.808 245.933C442.772 242.961 434.003 233.266 444.166 222.062Z" fill="#31374C"/>
<path d="M409.97 239.001C422.595 237.135 429.683 240.145 433.501 243.208C431.794 244.378 429.371 245.308 425.801 245.933C419.67 246.362 414.302 243.182 409.97 239.001Z" fill="#F97A7A"/>
<path d="M444.166 222.062C441.091 225.456 440.629 226.991 439.945 228.655C432.622 231.673 421.033 235.268 402.857 230.242C398.903 224.734 398.193 221.867 398.193 221.867C425.899 234.956 444.166 222.062 444.166 222.062Z" fill="white"/>
<path d="M444.165 222.062C442.517 223.187 440.713 224.071 438.863 224.832C437.012 225.586 435.104 226.204 433.156 226.692C432.185 226.932 431.201 227.14 430.218 227.316C429.228 227.478 428.237 227.628 427.241 227.725C426.244 227.829 425.241 227.914 424.244 227.94C423.241 227.992 422.237 227.979 421.234 227.973C420.231 227.927 419.228 227.914 418.231 227.81C417.228 227.745 416.238 227.608 415.241 227.485C414.251 227.342 413.26 227.173 412.27 226.984C411.286 226.776 410.303 226.574 409.339 226.308C408.361 226.067 407.404 225.781 406.446 225.482C405.482 225.209 404.544 224.838 403.593 224.52C402.648 224.182 401.723 223.785 400.792 223.427L398.042 222.211L398.537 221.73C399.195 223.174 399.945 224.604 400.726 226.002C401.515 227.4 402.348 228.772 403.228 230.105C404.993 232.778 406.935 235.346 409.143 237.655C411.352 239.957 413.827 242.038 416.641 243.527C419.443 245.016 422.615 245.829 425.781 245.627L425.749 245.633C426.407 245.497 427.071 245.406 427.716 245.237C428.368 245.094 429.013 244.918 429.651 244.717C430.283 244.509 430.915 244.294 431.514 244.014C431.82 243.891 432.114 243.735 432.407 243.579C432.706 243.429 432.98 243.254 433.254 243.071C433.814 242.72 434.309 242.291 434.778 241.836C435.227 241.361 435.644 240.848 435.977 240.282C436.667 239.157 437.104 237.889 437.462 236.601C438.166 234.02 438.693 231.334 439.762 228.837C440.022 228.213 440.315 227.602 440.628 226.997C440.941 226.399 441.293 225.82 441.657 225.248C442.042 224.689 442.42 224.129 442.85 223.609C443.253 223.057 443.722 222.569 444.165 222.062ZM444.165 222.062C443.736 222.582 443.286 223.089 442.902 223.642C442.491 224.175 442.126 224.747 441.762 225.306C441.41 225.879 441.078 226.464 440.778 227.069C440.485 227.673 440.205 228.285 439.964 228.909C439.475 230.157 439.097 231.451 438.778 232.752C438.452 234.059 438.198 235.379 437.853 236.692C437.514 237.999 437.084 239.319 436.374 240.509C436.035 241.114 435.599 241.654 435.13 242.168C434.641 242.655 434.12 243.117 433.54 243.494C433.254 243.689 432.967 243.878 432.661 244.034C432.361 244.203 432.055 244.365 431.742 244.502C431.123 244.801 430.478 245.029 429.827 245.256C429.175 245.464 428.517 245.659 427.853 245.816C427.195 245.998 426.518 246.102 425.853 246.245H425.847H425.82C422.524 246.518 419.202 245.653 416.309 244.131C413.397 242.61 410.857 240.49 408.596 238.156C406.335 235.808 404.348 233.227 402.57 230.515C401.684 229.156 400.844 227.764 400.055 226.353C399.267 224.936 398.524 223.499 397.853 222.01L397.456 221.132L398.349 221.528L401.065 222.744C401.99 223.109 402.896 223.505 403.834 223.843C404.772 224.169 405.697 224.533 406.648 224.812C407.593 225.118 408.544 225.404 409.508 225.645C410.459 225.918 411.436 226.113 412.4 226.334C413.371 226.542 414.348 226.718 415.326 226.874C416.309 227.017 417.286 227.16 418.277 227.244C419.26 227.361 420.257 227.394 421.247 227.452C422.237 227.472 423.234 227.498 424.224 227.459C425.215 227.446 426.211 227.374 427.195 227.29C428.185 227.205 429.169 227.075 430.153 226.926C431.136 226.77 432.114 226.587 433.084 226.379C435.026 225.944 436.934 225.371 438.797 224.669C440.648 223.947 442.478 223.128 444.165 222.062Z" fill="#494F66"/>
<path d="M402.726 220.429C402.726 220.429 402.062 220.364 401.111 220.449C400.876 220.468 400.622 220.501 400.355 220.553C400.088 220.586 399.821 220.69 399.541 220.742C399.274 220.852 398.987 220.924 398.733 221.073C398.603 221.145 398.466 221.197 398.335 221.281L397.971 221.541C397.71 221.697 397.521 221.938 397.3 222.127C397.111 222.361 396.928 222.588 396.752 222.809C396.616 223.063 396.459 223.297 396.322 223.525C396.212 223.772 396.101 224.006 396.003 224.22C395.899 224.435 395.808 224.637 395.756 224.825C395.691 225.014 395.632 225.176 395.58 225.306C395.476 225.58 395.41 225.729 395.41 225.729C395.41 225.729 395.417 225.567 395.423 225.274C395.456 224.988 395.423 224.559 395.567 224.077C395.625 223.83 395.684 223.564 395.775 223.284C395.892 223.018 396.016 222.731 396.153 222.439C396.329 222.166 396.511 221.88 396.726 221.613C396.98 221.379 397.202 221.093 397.502 220.904L397.945 220.612C398.094 220.521 398.257 220.455 398.414 220.384C398.72 220.215 399.065 220.169 399.371 220.072C399.69 220.026 400.003 219.961 400.296 219.968C400.589 219.948 400.87 219.968 401.117 220C402.127 220.111 402.726 220.429 402.726 220.429Z" fill="#494F66"/>
<path opacity="0.2" d="M405.456 198.795C405.561 200.74 402.408 202.508 398.427 202.73C394.44 202.957 391.137 201.559 391.033 199.608C390.936 197.658 394.082 195.895 398.062 195.674C402.049 195.447 405.359 196.845 405.456 198.795Z" fill="#EF3F54"/>
<path opacity="0.2" d="M453.28 194.224C453.723 195.863 451.365 197.911 448.01 198.796C444.648 199.686 441.567 199.075 441.124 197.43C440.681 195.791 443.045 193.743 446.4 192.852C449.749 191.968 452.83 192.579 453.28 194.224Z" fill="#EF3F54"/>
<path d="M450.303 166.647C447.28 164.169 443.944 162.505 437.931 163.272C434.909 164.033 431.671 164.644 433.918 161.048C437.86 155.482 451.13 159.208 453.84 167.226C455.417 170.639 452.146 168.604 450.303 166.647Z" fill="#2B2E3A"/>
<path d="M390.087 172.336C392.263 169.092 394.973 166.536 400.96 165.535C404.074 165.392 407.351 165.034 404.159 162.244C398.778 158.057 387.149 165.444 386.876 173.91C386.335 177.636 388.882 174.742 390.087 172.336Z" fill="#2B2E3A"/>
<path opacity="0.6" d="M415.456 175.893C415.456 175.893 424.563 180.14 433.892 178.572C433.892 178.572 424.556 194.081 437.273 211.306C437.273 211.306 425.951 218.264 416.25 211.488C416.244 211.482 421.026 193.73 415.456 175.893Z" fill="url(#paint0_linear_87_6656)"/>
<path d="M374.023 202.697C374.023 202.697 369.469 189.1 375.476 175.49C379.866 165.541 371.17 152.211 366.29 147.711C366.29 147.711 348.466 146.06 347.567 146.97C342.095 152.517 335.926 168.728 355.456 205.604L374.023 202.697Z" fill="#2B2E3A"/>
<path d="M368.089 209.746C368.089 209.746 361.58 197.014 352.577 203.1C343.574 209.187 352.076 240.106 373.15 228.974C373.15 228.974 377.697 223.154 368.089 209.746Z" fill="#FAC2A8"/>
<path d="M355.17 214.616C354.896 213.862 354.766 213.036 354.818 212.197C354.877 211.365 355.157 210.474 355.776 209.778C356.388 209.07 357.267 208.66 358.127 208.465C358.961 208.257 360.01 208.25 360.876 208.614C361.762 208.946 362.499 209.512 363.111 210.136C363.717 210.773 364.218 211.469 364.655 212.191C365.098 212.906 365.443 213.667 365.762 214.434C366.069 215.208 366.355 215.962 366.557 216.801L366.746 217.588L365.984 217.77C365.046 217.998 364.056 218.368 363.209 218.823C362.355 219.272 361.606 219.916 361.502 220.67C361.391 221.444 362.003 222.354 362.707 223.076C363.43 223.817 364.271 224.474 365.137 225.105C364.147 224.695 363.17 224.214 362.284 223.557C361.841 223.226 361.411 222.855 361.059 222.38C360.714 221.912 360.42 221.307 360.42 220.612C360.42 219.916 360.746 219.272 361.144 218.797C361.541 218.316 362.01 217.946 362.492 217.62C363.476 216.99 364.492 216.574 365.6 216.229L365.026 217.204C364.57 215.787 363.951 214.33 363.202 213.043C362.453 211.755 361.502 210.565 360.31 209.999C359.183 209.46 357.521 209.655 356.479 210.474C355.417 211.365 355.072 213.043 355.17 214.616Z" fill="#DC918B"/>
<path d="M437.267 211.3C437.267 211.3 425.762 229.338 416.244 211.482C416.244 211.482 426.954 214.09 437.267 211.3Z" fill="#DC918B"/>
<path d="M416.192 278.4C420.72 281.911 426.25 288.551 426.25 288.551C426.25 288.551 424.778 280.65 423.84 276.131C422.72 273.452 417.254 268.054 417.254 268.054C417.254 268.054 416.12 276.495 416.192 278.4Z" fill="#BD1A3B"/>
<path d="M373.724 279.642C377.802 275.89 386.825 274.459 386.825 274.459C387.952 273.673 399.587 284.974 392.29 294.325C388.375 299.338 381.405 316.414 375.997 327.52C370.851 320.634 359.17 312.356 355.027 310.23C361.62 297.166 367.379 285.475 373.724 279.642Z" fill="#EF3F54"/>
<path d="M429.67 305.073C429.436 305.08 429.273 305.171 429.091 305.451L426.928 308.747L425.853 305.698C425.742 305.392 425.534 305.295 425.345 305.308C425.058 305.327 424.921 305.451 424.784 305.724L422.954 309.97L424.107 309.905L425.345 306.979L426.374 309.781L427.338 309.729L429.286 306.777L429.436 309.612L430.426 309.56L430.198 305.594C430.172 305.204 429.918 305.067 429.67 305.073Z" fill="white"/>
<path d="M421.358 306.27L420.635 310.1L421.691 310.041L422.401 306.211L421.358 306.27Z" fill="white"/>
<path d="M419.619 307.447C419.651 306.94 419.325 306.38 418.27 306.439L416.231 306.55L415.521 310.38L416.563 310.321L416.83 308.884L417.365 308.851L418.368 310.217L419.508 310.152L418.387 308.702C419.306 308.435 419.593 307.948 419.619 307.447ZM417.703 308.195L416.961 308.234L417.176 307.076L417.964 307.031C418.381 307.005 418.609 307.193 418.589 307.551C418.563 307.928 418.211 308.169 417.703 308.195Z" fill="white"/>
<path d="M434.765 309.32L435.769 309.261L434.622 305.828C434.472 305.438 434.225 305.347 433.964 305.379C433.801 305.399 433.638 305.477 433.482 305.717L431.182 309.508L432.205 309.45L432.668 308.65L434.531 308.546L434.765 309.32ZM433.065 308.006L433.905 306.569L434.335 307.935L433.065 308.006Z" fill="white"/>
<path d="M438.902 308.39C438.055 308.422 437.547 307.974 437.579 307.362C437.625 306.537 438.348 305.997 439.397 305.951C439.703 305.938 440.107 305.938 440.472 306.01L440.615 305.243C440.315 305.191 439.807 305.165 439.475 305.178C437.677 305.275 436.583 306.166 436.511 307.408C436.446 308.507 437.267 309.248 438.928 309.157C439.26 309.138 439.553 309.092 439.957 309.008L440.114 308.169C439.729 308.292 439.416 308.37 438.902 308.39Z" fill="white"/>
<path d="M454.029 123.405C445.156 116.87 428.374 103.65 410.381 106.361C401.469 107.857 395.241 109.522 388.57 114.36C389.163 112.805 394.564 108.052 394.121 107.044C393.574 105.789 346.884 124.699 347.568 146.983C345.333 150.163 344.161 152.543 344.213 153.564C344.467 158.421 376.812 176.505 373.326 164.891C369.952 155.131 368.936 154.045 372.48 150.8C378.838 144.948 390.844 142.925 419.371 147.263C432.746 149.298 473.67 145.26 470.895 129.602C470.889 129.602 462.902 129.94 454.029 123.405Z" fill="#2B2E3A"/>
<path d="M417.553 274.993L412.504 286.983L397.228 274.934L393.658 278.738L413.573 294.812L418.921 280.747L417.553 274.993Z" fill="#BD1A3B"/>
<path d="M392.238 267.625C392.238 267.625 398.296 275.812 405.886 281.762C404.869 283.979 395.658 289.903 395.658 289.903L385.326 273.399L392.238 267.625Z" fill="#BD1A3B"/>
<path d="M387.671 305.431C387.359 305.776 387.17 306.218 386.955 306.634C386.74 307.05 386.544 307.48 386.342 307.896L385.15 310.438C384.362 312.135 383.548 313.826 382.701 315.497C382.284 316.336 381.789 317.142 381.32 317.949L380.583 319.152C380.46 319.353 380.329 319.548 380.219 319.756L379.906 320.387C379.059 322.065 378.154 323.716 377.079 325.29C377.58 323.45 378.264 321.688 378.994 319.958C379.385 319.106 379.691 318.202 380.056 317.324C380.421 316.447 380.792 315.582 381.222 314.743C382.101 313.072 383.026 311.427 384.069 309.84C384.59 309.047 385.124 308.26 385.71 307.506C385.997 307.122 386.303 306.758 386.616 306.394C386.922 306.049 387.241 305.665 387.671 305.431Z" fill="#BD1A3B"/>
<path d="M439.065 295.69C440.153 299.963 440.785 304.319 441.208 308.696C441.612 313.072 441.821 317.487 441.443 321.876C441.3 319.678 441.117 317.5 440.935 315.315L440.303 308.78L439.625 302.245C439.41 300.073 439.228 297.888 439.065 295.69Z" fill="#BD1A3B"/>
</g>
<defs>
<linearGradient id="paint0_linear_87_6656" x1="417.924" y1="174.995" x2="431.669" y2="213.662" gradientUnits="userSpaceOnUse">
<stop stop-color="#FAC2A8"/>
<stop offset="0.2651" stop-color="#F7BCA5"/>
<stop offset="0.6038" stop-color="#EDAD9B"/>
<stop offset="0.981" stop-color="#DD938C"/>
<stop offset="1" stop-color="#DC918B"/>
</linearGradient>
</defs>
</svg>
