<svg width="80" height="156" viewBox="0 0 80 156" fill="none" xmlns="http://www.w3.org/2000/svg">
<mask id="mask0_1_965" style="mask-type:alpha" maskUnits="userSpaceOnUse" x="0" y="0" width="80" height="156">
<rect width="80" height="156" fill="#C4C4C4"/>
</mask>
<g mask="url(#mask0_1_965)">
<path d="M26.312 131.044C26.312 131.044 27.8836 131.227 29.0266 132.946C30.4911 135.141 30.9912 137.481 30.0625 139.42C29.1338 141.322 28.9195 141.798 28.7409 142.822C28.6337 143.444 29.2052 145.602 29.3838 146.077C29.6696 147.065 28.9195 147.175 28.9195 147.175C29.241 147.869 28.8838 148.345 28.7052 148.345C27.8122 148.235 27.2764 145.492 26.7049 144.321C26.7049 144.321 27.5979 147.54 27.7408 149.077C27.8479 150.503 26.4906 150.393 26.0977 148.857C26.0977 148.857 24.9904 148.455 24.526 147.028C24.0617 145.602 23.3473 142.749 23.5973 140.993C23.8474 139.237 24.7761 135.141 24.7761 135.141L26.312 131.044Z" fill="#FAC2A8"/>
<path d="M25.2046 137.59C25.4189 138.212 25.5975 138.87 25.7761 139.529C25.919 140.187 26.0619 140.845 26.0976 141.54C26.0976 141.723 26.0976 141.87 26.0619 142.052C26.0262 142.199 26.0262 142.345 26.0619 142.528C26.0976 142.821 26.2405 143.113 26.4191 143.333C26.6334 143.552 26.9191 143.662 27.1334 143.516C27.2406 143.442 27.3478 143.333 27.3835 143.223C27.4549 143.113 27.4906 142.967 27.4906 142.821C27.5264 142.491 27.4906 142.162 27.4906 141.833C27.4906 141.504 27.4906 141.138 27.5621 140.809C27.6692 140.114 27.955 139.455 28.4193 138.943C28.6336 138.687 28.8837 138.468 29.0623 138.175C29.2409 137.919 29.3837 137.627 29.4552 137.297C29.6338 136.676 29.5266 135.981 29.2051 135.395C29.5981 135.944 29.7767 136.639 29.6338 137.334C29.5266 138.029 29.0623 138.614 28.6336 139.09C28.2407 139.602 27.9907 140.187 27.8835 140.845C27.7764 141.467 27.8478 142.126 27.8121 142.821C27.7764 143.003 27.7764 143.186 27.6692 143.369C27.5621 143.516 27.4549 143.698 27.2763 143.772C27.0977 143.881 26.8834 143.881 26.7048 143.808C26.5262 143.735 26.3476 143.625 26.2405 143.516C25.9904 143.26 25.8476 142.894 25.8118 142.528C25.7761 142.345 25.8118 142.162 25.8476 141.979C25.8833 141.833 25.8833 141.65 25.8833 141.504C25.8833 140.845 25.7761 140.187 25.669 139.529C25.5261 138.907 25.3475 138.248 25.2046 137.59Z" fill="#DC918B"/>
<path d="M25.4552 142.383C25.4909 142.969 25.5266 143.517 25.598 144.066C25.6695 144.615 25.8123 145.163 25.9909 145.675C26.0624 145.931 26.2053 146.188 26.3124 146.444C26.4196 146.7 26.5624 146.919 26.7053 147.212C26.8125 147.468 26.8839 147.834 26.741 148.09C26.6339 148.382 26.3838 148.565 26.0981 148.675C26.3481 148.528 26.5624 148.309 26.6339 148.053C26.7053 147.797 26.6339 147.541 26.5267 147.285C26.4196 147.065 26.241 146.809 26.0981 146.553C25.9552 146.297 25.8481 146.041 25.7409 145.749C25.5266 145.2 25.3837 144.651 25.3123 144.066C25.2051 143.554 25.2051 142.932 25.4552 142.383Z" fill="#DC918B"/>
<path d="M28.1683 143.08C28.1326 143.409 28.1683 143.738 28.2755 144.031C28.3112 144.177 28.4184 144.287 28.4898 144.433C28.5612 144.579 28.6327 144.762 28.6684 144.909C28.847 145.567 28.9541 146.225 28.9899 146.884C28.8113 146.262 28.6684 145.604 28.4184 145.018C28.3469 144.872 28.2755 144.726 28.2041 144.616C28.1326 144.47 28.0612 144.287 28.0612 144.104C28.0255 143.738 28.0612 143.409 28.1683 143.08Z" fill="#DC918B"/>
<path d="M24.7053 131.044L23.8123 135.067C23.8123 135.067 28.6343 134.555 31.4919 137.811L32.2777 131.885C32.3134 131.885 30.4203 130.203 24.7053 131.044Z" fill="#EF3F54"/>
<path d="M24.7038 131.044C24.7038 131.044 23.2036 126.07 24.6681 122.448C26.1326 118.827 28.24 102.733 29.5973 96.7344C30.3117 93.5887 33.2764 89.4188 35.0623 88.7605C36.4911 88.2118 36.884 103.867 37.1697 105.879C35.4195 111.036 32.6691 118.425 32.6691 119.083C32.6691 124.789 30.0259 132.507 30.0259 132.507C30.0259 132.507 27.4184 131.446 24.7038 131.044Z" fill="#BD1A3B"/>
<path d="M31.492 117.071L30.349 142.273C30.349 142.273 38.3144 146.553 44.6009 146.845C49.1372 169.779 48.0656 171.352 48.4586 173.547C48.6729 174.644 49.8516 192.86 49.7444 193.518C49.6016 194.177 49.4944 195.31 49.673 196.079C49.8159 196.664 49.4587 199.7 49.4587 199.7C49.4587 199.7 51.2803 200.248 53.6021 200.504C55.9238 200.761 58.9242 199.919 59.8172 199.919C59.8172 199.919 59.5672 198.31 59.8172 197.286C60.0315 196.444 59.2814 195.384 59.5672 194.469C59.8172 193.555 60.1744 188.69 60.1744 183.459C60.1744 177.205 59.8172 172.084 59.1742 170.218C59.4243 153.393 59.21 143.59 59.1742 142.712C59.0671 138.798 58.567 135.872 58.567 134.811C58.567 133.75 57.7812 116.888 57.7812 116.888L31.492 117.071Z" fill="#474E64"/>
<path d="M40.7064 137.408C40.8135 138.469 40.9207 139.566 41.0278 140.663C41.135 141.761 41.2064 142.821 41.2779 143.919V144.138H41.0635H38.9204H38.7418V143.955C38.7061 143.004 38.6704 142.053 38.6347 141.102C38.5989 140.151 38.5989 139.2 38.5632 138.249L38.6704 138.359C38.1346 138.286 37.6345 138.213 37.0987 138.14H37.063V138.103C37.1345 137.81 37.2416 137.554 37.3131 137.262C37.2416 137.554 37.2059 137.847 37.1345 138.103L37.0987 138.03C37.6345 138.066 38.1703 138.103 38.6704 138.14H38.7775V138.249C38.849 139.2 38.9204 140.151 38.9918 141.066C39.0633 142.017 39.099 142.968 39.1704 143.882L38.9561 143.699H41.0993L40.9207 143.919C40.885 142.821 40.8135 141.761 40.8135 140.663C40.7064 139.566 40.7064 138.505 40.7064 137.408Z" fill="#343948"/>
<path d="M59.1739 132.104L59.1382 135.031C59.1382 135.031 49.1011 136.896 47.3509 137.006C45.6007 137.079 44.6005 134.006 44.6005 134.006L46.4222 132.287L59.1739 132.104Z" fill="#EF3F54"/>
<path d="M30.2048 131.303L29.8476 134.229C29.8476 134.229 36.2056 136.387 37.9201 136.679C39.6346 137.009 41.0634 134.119 41.0634 134.119L39.4917 132.18L30.2048 131.303Z" fill="#EF3F54"/>
<path d="M30.349 142.236C30.349 142.236 31.2063 162.756 31.2063 163.671C31.2063 164.585 31.8492 194.469 31.5992 195.127C31.3492 195.786 30.9563 199.041 30.9563 199.041C30.9563 199.041 33.6352 200.138 35.3854 200.248C36.9928 200.358 37.7786 200.468 42.172 199.407C41.8148 196.7 41.8505 193.664 41.8505 192.75C41.8505 191.835 42.7792 181.411 42.7792 179.948C42.7792 178.485 43.5293 169.999 42.6364 166.341C42.3506 165.243 43.4222 146.699 43.4222 146.699C43.4222 146.699 37.0999 145.601 30.349 142.236Z" fill="#343948"/>
<path d="M29.5988 135.174V138.43C29.5988 138.43 34.2066 141.868 47.3512 141.209C60.4958 140.551 59.4242 139.783 59.4242 139.783L59.1742 134.26L29.5988 135.174Z" fill="#31374C"/>
<path d="M59.8887 90.0387C59.8887 90.0387 57.8884 89.0876 54.0665 87.9903C51.5662 87.2953 49.4587 86.8198 46.6727 86.8198C41.9935 86.7832 36.6356 88.2463 35.1354 88.7219C33.5638 89.2339 31.7778 94.94 31.4206 101.012C31.1349 105.73 30.5634 112.644 30.1348 120.764C29.8847 125.263 28.2774 132.505 29.6347 135.175C46.3155 140.406 59.21 135.029 59.21 135.029C61.0317 131.554 59.2815 127.055 60.9603 106.901C61.7461 97.0615 59.8887 90.0387 59.8887 90.0387Z" fill="#BD1A3B"/>
<path d="M35.0994 88.7594C34.6707 88.9423 34.385 89.3446 34.1707 89.7104C33.9206 90.1128 33.742 90.5151 33.5634 90.9541C33.2063 91.7953 32.9562 92.6732 32.7062 93.5876C32.2418 95.3799 31.9561 97.1722 31.7418 99.0011C31.6346 99.9156 31.5989 100.83 31.5275 101.744L31.3489 104.524C31.2417 106.353 31.0988 108.219 30.956 110.048C30.6702 113.742 30.4202 117.436 30.063 121.094C29.7415 124.788 29.3843 128.446 28.9557 132.14L30.5273 110.011L30.9202 104.488L31.0988 101.708C31.1703 100.793 31.206 99.8424 31.3489 98.928C31.5632 97.0991 31.9204 95.2702 32.4562 93.4779C32.7062 92.6 33.0277 91.7222 33.4206 90.8809C33.5992 90.4785 33.8492 90.0396 34.0992 89.6738C34.3493 89.2715 34.6707 88.9057 35.0994 88.7594Z" fill="#E0363C"/>
<path d="M51.3157 76.1393L40.4572 76.4685C40.4572 76.4685 40.993 82.0649 41.0287 89.7461C41.0287 91.2092 41.8145 93.2575 41.8145 93.2575C41.8145 93.2575 46.5294 92.6357 51.3515 87.1857C50.9943 85.7592 51.3157 76.1393 51.3157 76.1393Z" fill="#DC918B"/>
<path d="M40.7428 137.081C39.5283 120.036 42.7788 96.6266 43.0288 94.9074L41.6715 93.3346L41.9929 93.042L43.4931 94.7611V94.8709C43.4574 95.1269 39.957 119.488 41.2071 137.045L40.7428 137.081Z" fill="#E0363C"/>
<path d="M20.5611 58.84C20.5611 58.84 17.7036 49.2566 13.3459 53.3533C8.98814 57.45 15.2747 69.9596 22.2756 66.7773C22.2756 66.8139 23.9187 65.3874 20.5611 58.84Z" fill="#F7AB8D"/>
<path d="M10.8099 23.4693C5.52348 25.1153 8.20241 35.5033 9.27398 38.2466C13.2388 48.4884 14.0246 57.5962 17.4536 60.8516C17.4536 60.8516 19.4182 20.7991 10.8099 23.4693Z" fill="#2B2E3A"/>
<path d="M66.2087 56.463C66.173 56.902 65.0657 68.3507 58.2791 67.1437L58.8149 60.0111L66.2087 56.463Z" fill="#2B2E3A"/>
<path d="M59.2806 19.155C59.2806 19.155 19.2754 14.1805 13.3103 26.251C8.63111 35.6881 13.989 44.7959 16.5607 56.6104C18.4896 65.4256 18.811 71.6072 19.6683 73.0703C23.3831 79.6542 32.8486 85.5066 37.2777 85.3603C47.0647 85.0311 55.4587 76.5817 58.5305 70.4001C60.245 66.8887 60.7094 56.208 59.8879 43.662C59.2092 32.9082 60.9594 23.1785 59.2806 19.155Z" fill="#FAC2A8"/>
<path d="M41.5417 45.6084C42.2161 45.4568 42.6463 44.7901 42.5026 44.1192C42.3589 43.4483 41.6956 43.0273 41.0212 43.1788C40.3467 43.3303 39.9165 43.997 40.0603 44.6679C40.204 45.3388 40.8673 45.7599 41.5417 45.6084Z" fill="#31374C"/>
<path d="M41.683 44.1319C41.8747 44.0842 41.9924 43.8866 41.9459 43.6904C41.8995 43.4943 41.7064 43.3739 41.5147 43.4216C41.323 43.4692 41.2053 43.6669 41.2518 43.863C41.2983 44.0592 41.4913 44.1796 41.683 44.1319Z" fill="white"/>
<path opacity="0.2" d="M18.0605 53.6452C18.0605 54.5231 19.4893 55.218 21.2395 55.1815C22.9897 55.1449 24.3828 54.4133 24.3828 53.5355C24.3828 52.6576 22.954 51.9627 21.2038 51.9992C19.4536 52.0358 18.0605 52.7674 18.0605 53.6452Z" fill="#EF3F54"/>
<path opacity="0.2" d="M40.0634 50.5728C40.4563 51.4872 42.278 51.5603 44.0997 50.6825C45.9213 49.8412 47.0643 48.4147 46.6714 47.5003C46.2785 46.5858 44.4569 46.5127 42.6352 47.3905C40.7778 48.2318 39.6348 49.6583 40.0634 50.5728Z" fill="#EF3F54"/>
<path d="M21.7911 49.556C22.4656 49.4045 22.8958 48.7378 22.752 48.0669C22.6083 47.396 21.9451 46.975 21.2706 47.1265C20.5962 47.278 20.166 47.9447 20.3097 48.6156C20.4535 49.2865 21.1167 49.7075 21.7911 49.556Z" fill="#31374C"/>
<path d="M21.9325 48.0776C22.1242 48.0299 22.2419 47.8323 22.1954 47.6361C22.1489 47.44 21.9558 47.3196 21.7641 47.3673C21.5725 47.4149 21.4547 47.6126 21.5012 47.8087C21.5477 48.0049 21.7408 48.1252 21.9325 48.0776Z" fill="white"/>
<path d="M14.5249 40.807C15.6322 39.161 17.0253 37.8442 20.0257 37.4053C21.5973 37.3687 23.2404 37.1858 21.6687 35.7227C18.9898 33.5281 13.0962 37.2224 12.8819 41.6117C12.5961 43.5138 13.9177 42.0141 14.5249 40.807Z" fill="#2B2E3A"/>
<path d="M44.3856 35.1008C42.8854 33.7841 41.2066 32.9062 38.2062 33.272C36.6703 33.6377 35.063 33.9304 36.206 32.1015C38.242 29.2485 44.85 31.2968 46.1716 35.43C46.9574 37.2223 45.3143 36.125 44.3856 35.1008Z" fill="#2B2E3A"/>
<path opacity="0.6" d="M32.2419 36.7491C32.2419 36.7491 29.9559 40.1509 24.7052 40.7727C24.7052 40.7727 29.9916 48.4906 27.3841 59.2078C27.3841 59.2078 33.1348 61.8048 37.314 56.5376C37.2782 56.5376 31.9918 47.4664 32.2419 36.7491Z" fill="url(#paint0_linear_1_965)"/>
<path d="M58.1378 53.4273C54.423 47.4286 55.9232 40.9178 51.9227 34.5899C48.9223 29.908 48.2793 21.422 50.0296 18.4958C50.0296 18.4958 60.4238 14.9478 60.9953 15.277C64.3886 17.2522 68.9964 27.6036 67.1747 48.6722L58.1378 53.4273Z" fill="#2B2E3A"/>
<path d="M58.8514 50.6833C58.8514 50.6833 59.8515 44.648 65.0307 46.3672C70.21 48.1229 70.7815 63.449 59.0657 60.9251C59.0657 60.9251 57.9941 56.9747 58.8514 50.6833Z" fill="#FAC2A8"/>
<path d="M65.5673 50.2461C64.9601 49.9169 64.2457 49.6974 63.567 49.734C62.8884 49.734 62.2454 50.0998 61.8525 50.6484C61.4596 51.1971 61.2096 51.8189 61.031 52.4773C60.8524 53.1357 60.781 53.8307 60.7095 54.4891L60.4595 54.2696C61.1382 54.1599 61.8168 54.233 62.424 54.5988C63.0313 54.928 63.3884 55.5864 63.4599 56.2448C63.5313 56.574 63.4599 56.9032 63.3884 57.2324C63.2813 57.5616 63.067 57.8176 62.8169 58.0371C62.3169 58.4395 61.7097 58.6955 61.0667 58.8052C61.6739 58.6223 62.2454 58.3297 62.6741 57.8908C62.8884 57.6713 63.067 57.4153 63.1384 57.1592C63.2099 56.8666 63.2456 56.6106 63.1741 56.318C63.067 55.7327 62.7455 55.2206 62.2454 54.9646C61.7454 54.672 61.1024 54.6354 60.5667 54.7451L60.3166 54.7817L60.3523 54.5257C60.4238 53.8307 60.5309 53.1357 60.7095 52.4407C60.8881 51.7458 61.1739 51.0508 61.6382 50.5021C62.1026 49.9169 62.8527 49.5511 63.6028 49.5877C64.3171 49.5145 64.9958 49.8071 65.5673 50.2461Z" fill="#DC918B"/>
<path d="M27.3472 59.1697C27.3472 59.1697 33.2051 66.0461 37.277 56.4995C37.277 56.5361 33.348 59.0965 27.3472 59.1697Z" fill="#DC918B"/>
<path d="M6.27398 18.6411C9.66729 14.1421 15.9538 5.21716 24.9907 4.0101C29.4913 3.49801 29.9557 4.52219 29.9557 4.52219C29.4913 3.86379 27.7411 1.59598 27.7411 1.59598C35.2778 4.04668 59.9954 -4.0004 60.9598 15.3126C62.46 16.5562 63.3887 17.5804 63.4958 18.0925C64.0316 20.5432 50.9227 34.0769 50.9942 27.8221C51.2799 22.5184 51.6014 21.8234 49.4583 20.7261C45.5649 18.7143 39.4927 19.4093 26.3123 25.5909C20.133 28.4805 8.63144 32.9064 -1.0127 24.1278C-1.0127 24.0912 2.88068 23.1402 6.27398 18.6411Z" fill="#2B2E3A"/>
<path d="M25.526 66.3042C31.9197 70.218 29.205 76.1801 37.599 75.0828C45.5643 73.1808 47.1003 59.391 47.1003 59.391C35.9559 69.8156 25.526 66.3042 25.526 66.3042Z" fill="#31374C"/>
<path d="M44.0296 69.412C37.8145 70.3996 34.9212 72.8868 33.5996 74.9352C34.564 75.2644 35.8499 75.3375 37.6001 75.1181C40.5291 74.3865 42.6008 72.0821 44.0296 69.412Z" fill="#F97A7A"/>
<path d="M25.526 66.3042C26.8833 67.1089 27.812 68.0233 28.5264 68.9378C28.8478 69.3401 39.885 68.9012 46.1715 63.8535C46.8502 61.3296 47.0645 59.391 47.0645 59.391C35.9559 69.8156 25.526 66.3042 25.526 66.3042Z" fill="white"/>
<path d="M26.3476 66.8531C26.6333 67.036 26.8834 67.2554 27.1334 67.4749C27.3834 67.6944 27.6335 67.9138 27.8835 68.1699C28.1335 68.4259 28.3479 68.682 28.5622 68.938C29.4194 69.9988 30.0624 71.2058 30.7768 72.3397C31.1339 72.925 31.5269 73.4736 31.9912 73.9126C32.2412 74.132 32.4913 74.3149 32.777 74.4978C33.0628 74.6441 33.3485 74.7904 33.67 74.8636C33.8129 74.9002 33.9915 74.9367 34.1343 74.9733C34.2772 75.0099 34.4558 75.0465 34.5987 75.0465C34.9202 75.083 35.2416 75.1196 35.5631 75.1196C35.8846 75.1196 36.206 75.1196 36.5632 75.083C36.8847 75.083 37.2062 75.0099 37.5276 74.9733C39.0278 74.6075 40.4209 73.7297 41.5282 72.5958C42.6355 71.4619 43.4927 70.1085 44.2071 68.6454C44.9215 67.2189 45.4573 65.6826 45.8859 64.1463C46.1002 63.3782 46.3145 62.5735 46.4574 61.8054C46.636 61.0007 46.7789 60.2326 46.886 59.4278L47.1718 59.5742L46.0645 60.5617C45.6716 60.8909 45.3144 61.2201 44.9215 61.5128C44.5286 61.8054 44.1357 62.1346 43.707 62.3906C43.3141 62.6832 42.8855 62.9759 42.4569 63.2319C42.0282 63.488 41.5996 63.744 41.171 64C40.7424 64.2561 40.278 64.4755 39.8494 64.695C39.385 64.9145 38.9564 65.0974 38.4921 65.2803C38.0277 65.4631 37.5634 65.646 37.099 65.7923C36.6347 65.9387 36.1703 66.085 35.6703 66.2313C35.2059 66.3776 34.7058 66.4873 34.2415 66.5605C33.7414 66.6702 33.2771 66.7434 32.777 66.8165C32.277 66.8897 31.8126 66.9262 31.3125 66.9628C30.3124 66.9994 29.348 66.9994 28.3479 66.9262C27.3834 66.8165 26.3833 66.6702 25.4546 66.3776C25.7761 66.4873 26.0976 66.6702 26.3476 66.8531ZM28.4193 66.7799C29.3837 66.8531 30.3838 66.8531 31.3483 66.7434C31.8483 66.7068 32.3127 66.6336 32.8127 66.5605C33.3128 66.4873 33.7771 66.4142 34.2415 66.3044C34.7058 66.1947 35.2059 66.085 35.6703 65.9386C36.1346 65.7923 36.5989 65.646 37.0633 65.4997C37.5276 65.3168 37.992 65.1705 38.4206 64.9511C38.885 64.7682 39.3136 64.5487 39.7422 64.3292C40.1709 64.1098 40.5995 63.8903 41.0281 63.6343C41.4567 63.3782 41.8854 63.1588 42.2783 62.8661C42.7069 62.6101 43.0998 62.3175 43.4927 62.0248C43.8856 61.7688 44.2785 61.4396 44.6714 61.147C45.0644 60.8544 45.4215 60.5252 45.8145 60.196L46.9217 59.2084L47.2789 58.8792L47.2075 59.3547C47.1003 60.1594 46.9575 60.9641 46.8146 61.7688C46.636 62.5735 46.4574 63.3782 46.2431 64.1463C45.8145 65.7192 45.2429 67.2554 44.5286 68.7185C43.8142 70.1816 42.9212 71.5716 41.7782 72.7421C40.6352 73.9126 39.2064 74.827 37.5991 75.1562C37.2776 75.1928 36.9204 75.2294 36.599 75.2294C36.2775 75.2659 35.9203 75.2659 35.5988 75.2659C35.2773 75.2659 34.9202 75.2294 34.5987 75.1928C34.4201 75.1928 34.2772 75.1562 34.0986 75.1196C33.92 75.083 33.7771 75.0465 33.5986 74.9733C33.2771 74.8636 32.9556 74.7173 32.6699 74.571C32.3841 74.3881 32.0984 74.2052 31.8483 73.9491C31.3483 73.4736 30.9553 72.925 30.5982 72.3397C30.241 71.7545 29.9195 71.1692 29.598 70.584C29.2766 69.9988 28.8836 69.4501 28.4907 68.9014C28.2764 68.6454 28.0621 68.3893 27.8478 68.1333C27.6335 67.8773 27.3834 67.6578 27.1334 67.4383C26.8834 67.2189 26.6333 66.9994 26.3476 66.8165C26.0976 66.597 25.8118 66.4142 25.5261 66.2313C26.4548 66.5605 27.4192 66.7068 28.4193 66.7799Z" fill="#DC918B"/>
<path d="M44.7424 59.3904C44.7424 59.3904 45.0638 59.2441 45.4925 59.1709C45.5996 59.1344 45.7425 59.1344 45.8497 59.0978C45.9925 59.0612 46.1354 59.0978 46.2426 59.0612C46.3854 59.0612 46.5283 59.0612 46.6712 59.0978C46.7426 59.0978 46.8141 59.1344 46.8855 59.1344L47.0998 59.2075C47.2427 59.2441 47.3499 59.3172 47.4927 59.3904C47.5999 59.4636 47.7428 59.5733 47.8499 59.6465C47.9571 59.7562 48.0642 59.8294 48.1714 59.9391C48.2428 60.0488 48.35 60.122 48.4214 60.2317C48.4929 60.3049 48.5643 60.4146 48.6358 60.4878C48.7072 60.5609 48.7429 60.6341 48.7786 60.7072C48.8501 60.817 48.9215 60.8901 48.9215 60.8901C48.9215 60.8901 48.8858 60.817 48.8501 60.6707C48.7786 60.5243 48.7429 60.3415 48.6 60.122C48.5286 60.0122 48.4572 59.9025 48.3857 59.7562C48.2786 59.6465 48.2071 59.5367 48.1 59.3904C47.9928 59.2807 47.8499 59.1709 47.7071 59.0612C47.5642 58.988 47.4213 58.8783 47.2427 58.8417L46.9927 58.7686C46.9212 58.732 46.8141 58.732 46.7426 58.732C46.564 58.6954 46.4212 58.732 46.2426 58.732C46.0997 58.7686 45.9211 58.7686 45.7782 58.8051C45.6353 58.8417 45.5282 58.8783 45.3853 58.9515C44.9924 59.1344 44.7424 59.3904 44.7424 59.3904Z" fill="#DC918B"/>
<path d="M38.3487 15.2742C38.3487 15.2742 40.1704 19.2246 35.1698 23.4676C29.5262 28.2227 22.3109 28.8811 22.3109 28.8811C22.3109 28.8811 25.5971 26.3938 24.9898 23.6871C24.0969 19.7001 31.2407 13.1161 31.2407 13.1161L38.3487 15.2742Z" fill="#2B2E3A"/>
<path d="M21.9542 4.74197C21.9542 4.74197 19.561 5.43694 10.5241 11.1064C6.73786 13.484 3.91606 9.53361 3.91606 9.53361C3.91606 9.53361 1.48717 19.2632 10.6312 18.239C19.7753 17.1783 21.9542 4.74197 21.9542 4.74197Z" fill="#2B2E3A"/>
<path d="M51.1727 83.1281C51.1727 83.1281 46.8507 85.5056 44.3503 85.6885C41.85 85.8714 42.3501 91.9432 42.1715 93.5892C42.1715 93.5892 47.9937 92.748 50.2083 91.0288C52.4228 89.3097 53.2086 87.9563 53.2086 87.9563C53.2086 87.9563 53.4944 84.4083 53.1372 82.9452C53.0301 82.5794 51.1369 81.5552 51.1369 81.5552L51.1727 83.1281Z" fill="#31374C"/>
<path d="M40.1358 85.0281C40.1358 85.0281 39.5643 85.2842 39.1714 85.8328C38.7785 86.3815 39.6715 90.0759 39.5286 90.9903C39.3857 91.9048 41.4574 93.4045 41.4574 93.4045L41.9575 92.9655L41.6717 86.8205C41.6717 86.4181 41.386 86.0523 40.9931 85.9426L40.9574 84.8452L40.1358 85.0281Z" fill="#31374C"/>
<path d="M42.4925 93.4439L42.2781 93.3707V92.8586L41.7424 92.6758L41.4923 93.0781L41.2423 93.0415L40.385 95.1264C40.2779 95.3825 40.4207 95.6751 40.6708 95.7482L41.4209 96.0043C41.6709 96.0774 41.9567 95.9311 42.0281 95.6385L42.4925 93.4439Z" fill="#E1E4F4"/>
<path d="M49.2449 101.929C49.1377 101.929 49.0663 101.966 48.9948 102.075L47.959 103.356L47.6732 102.039C47.6375 101.893 47.5661 101.856 47.4946 101.856C47.3875 101.856 47.316 101.893 47.2446 102.002L46.2802 103.685L46.7445 103.721L47.3875 102.551L47.6732 103.794L48.0661 103.831L48.9948 102.697L48.9234 103.904L49.3163 103.941L49.4235 102.258C49.4235 102.039 49.3163 101.966 49.2449 101.929Z" fill="white"/>
<path d="M45.7793 102.039L45.2793 103.612H45.7079L46.208 102.039H45.7793Z" fill="white"/>
<path d="M44.994 102.44C45.0298 102.221 44.9226 101.965 44.494 101.965L43.6724 101.892L43.2081 103.465L43.6367 103.501L43.8153 102.916H44.0296L44.3868 103.538L44.8512 103.574L44.4583 102.916C44.8154 102.843 44.9583 102.623 44.994 102.44ZM44.1725 102.66L43.851 102.623L43.9939 102.148L44.3154 102.184C44.494 102.184 44.5654 102.294 44.5297 102.44C44.5297 102.587 44.3868 102.66 44.1725 102.66Z" fill="white"/>
<path d="M51.1022 103.977L51.5308 104.013L51.245 102.514C51.2093 102.331 51.1022 102.294 50.995 102.294C50.9236 102.294 50.8521 102.331 50.7807 102.404L49.6377 103.867L50.0663 103.904L50.2806 103.575L51.0307 103.611L51.1022 103.977ZM50.4592 103.355L50.8879 102.806L50.995 103.392L50.4592 103.355Z" fill="white"/>
<path d="M52.8514 103.795C52.4942 103.758 52.3156 103.539 52.3513 103.283C52.4228 102.953 52.7442 102.734 53.1729 102.771C53.3157 102.771 53.4586 102.807 53.6015 102.844L53.7086 102.514C53.6015 102.478 53.3872 102.441 53.2443 102.441C52.4942 102.405 52.0299 102.697 51.9227 103.209C51.8513 103.685 52.137 104.014 52.8157 104.051C52.9585 104.051 53.0657 104.051 53.2443 104.051L53.3515 103.722C53.1729 103.795 53.03 103.831 52.8514 103.795Z" fill="white"/>
<path d="M34.9196 118.057C34.9196 118.057 34.2409 117.435 34.1695 116.923C34.0981 116.411 34.5981 115.606 34.5981 115.606C34.5981 115.606 34.1695 114.984 34.3838 114.216C34.5981 113.411 35.0982 113.082 35.0982 113.082C35.0982 113.082 34.4552 112.46 34.6696 111.729C34.8839 110.961 35.7054 110.705 36.777 110.851C36.777 110.851 42.7778 110.961 43.5636 111.656C44.6709 112.607 46.0996 115.387 46.0996 115.387C47.0998 116.338 46.7783 120.617 46.7783 120.617L44.0636 120.251C43.2421 121.129 37.5985 121.056 37.0627 120.8C35.884 120.288 35.5983 120.215 34.8482 119.556C34.3481 119.081 34.9196 118.057 34.9196 118.057Z" fill="#FAC2A8"/>
<path d="M40.9204 106.28C40.849 107.267 41.2419 107.779 42.3492 110.011C42.8135 110.962 44.0994 110.486 45.4567 114.107C45.8139 115.095 39.2416 112.315 39.6345 111.913C40.4204 111.035 38.5987 109.389 38.6344 107.377C38.6344 105.621 41.0633 104.048 40.9204 106.28Z" fill="#FAC2A8"/>
<path d="M36.0979 110.888C36.0979 110.888 39.2769 110.632 39.8127 111.803C40.3485 112.937 39.8484 113.522 39.2055 113.595C39.2055 113.595 39.7055 113.997 39.5984 114.839C39.4912 115.68 38.7768 115.79 38.0267 115.899C37.2766 116.009 35.2764 115.68 35.2764 115.68L36.0979 110.888Z" fill="#FAC2A8"/>
<path d="M45.6011 114.182L50.1731 114.986L49.423 121.278L44.9938 120.583L45.6011 114.182Z" fill="#EF3F54"/>
<path d="M48.9216 114.766C50.1361 111.803 54.7081 113.705 57.0298 113.303C56.1369 109.718 55.7439 105.987 55.7439 105.987L54.0652 102.366C54.2438 94.0265 56.5655 90.515 59.7088 89.8201C59.7088 89.8201 63.2449 91.2466 64.3165 96.404C64.638 97.9769 67.9598 119.814 64.4237 122.959C61.2447 125.776 51.4577 125.154 48.5287 122.191L48.9216 114.766Z" fill="#BD1A3B"/>
<path d="M48.9211 114.766C49.064 114.4 49.2426 114.071 49.5284 113.815C49.8141 113.559 50.1356 113.376 50.4928 113.23C51.2072 112.974 51.9573 112.937 52.6716 112.937C53.4217 112.974 54.1361 113.047 54.8505 113.083C55.5649 113.157 56.315 113.193 56.9936 113.083L56.8508 113.303C56.5293 112.096 56.2793 110.889 56.0649 109.645C55.8506 108.438 55.672 107.194 55.5292 105.951L55.5649 106.06C54.9934 104.853 54.4219 103.61 53.8861 102.403L53.8504 102.366V102.33C53.8861 101.086 53.9575 99.8423 54.1361 98.5987C54.279 97.355 54.529 96.148 54.9219 94.9409C55.0291 94.6483 55.1363 94.3557 55.2434 94.0631C55.3506 93.7704 55.4934 93.4778 55.6363 93.2218C55.7792 92.9292 55.9221 92.6731 56.1007 92.4171C56.2793 92.161 56.4579 91.905 56.6722 91.6855C57.0651 91.21 57.5294 90.8077 58.0652 90.4785C58.601 90.1493 59.1725 89.9298 59.7797 89.8201C59.2082 89.9664 58.6367 90.2224 58.1367 90.5516C57.6366 90.9174 57.208 91.3197 56.8508 91.7953C56.1007 92.7463 55.6363 93.9168 55.2791 95.0507C54.9219 96.2211 54.7433 97.4282 54.6005 98.6718C54.4576 99.8789 54.3862 101.123 54.3504 102.366L54.3147 102.256C54.8862 103.463 55.422 104.634 55.9578 105.841L55.9935 105.914V105.951C56.1364 107.158 56.315 108.401 56.4936 109.608C56.7079 110.816 56.9579 112.023 57.208 113.23L57.2437 113.413L57.0651 113.449C56.315 113.559 55.5649 113.486 54.8505 113.376C54.1361 113.303 53.386 113.193 52.6716 113.157C51.9573 113.12 51.2072 113.12 50.5285 113.303C49.8141 113.595 49.2069 114.071 48.9211 114.766Z" fill="#E0363C"/>
<path d="M64.4596 122.962C63.9595 123.437 63.3166 123.803 62.6736 124.059C62.0307 124.352 61.3163 124.535 60.6376 124.644C59.2446 124.9 57.8158 125.01 56.4228 124.937C55.0297 124.864 53.601 124.681 52.2437 124.279C51.565 124.096 50.8863 123.84 50.2434 123.51C49.6005 123.181 48.9932 122.815 48.4575 122.267L48.386 122.194V122.12C48.4217 121.499 48.4575 120.877 48.4932 120.255L48.636 118.39C48.6718 117.768 48.7432 117.146 48.7789 116.524C48.8146 115.902 48.8861 115.28 48.9218 114.659C48.9218 115.28 48.9218 115.902 48.8861 116.524C48.8861 117.146 48.8861 117.768 48.8504 118.39L48.8146 120.255C48.7789 120.877 48.7789 121.499 48.7432 122.12L48.6718 121.974C49.6719 122.925 50.9935 123.437 52.3151 123.803C53.6367 124.169 55.0297 124.388 56.4228 124.461C57.8158 124.535 59.2089 124.535 60.5662 124.315C61.9592 124.205 63.3166 123.84 64.4596 122.962Z" fill="#E0363C"/>
</g>
<defs>
<linearGradient id="paint0_linear_1_965" x1="29.5457" y1="37.1083" x2="32.5077" y2="59.6766" gradientUnits="userSpaceOnUse">
<stop stop-color="#FAC2A8"/>
<stop offset="0.2651" stop-color="#F7BCA5"/>
<stop offset="0.6038" stop-color="#EDAD9B"/>
<stop offset="0.981" stop-color="#DD938C"/>
<stop offset="1" stop-color="#DC918B"/>
</linearGradient>
</defs>
</svg>
